<?xml version="1.0" standalone="no"?>
<!DOCTYPE svg PUBLIC "-//W3C//DTD SVG 20010904//EN"
 "http://www.w3.org/TR/2001/REC-SVG-20010904/DTD/svg10.dtd">
<svg version="1.0" xmlns="http://www.w3.org/2000/svg"
 width="1318.000000pt" height="1318.000000pt" viewBox="0 0 1318.000000 1318.000000"
 preserveAspectRatio="xMidYMid meet">
<metadata>
Created by potrace 1.14, written by Peter Selinger 2001-2017
</metadata>
<g transform="translate(0.000000,1318.000000) scale(0.100000,-0.100000)"
fill="#000000" stroke="none">
<path d="M6357 12514 c-1 -1 -45 -5 -97 -8 -145 -10 -194 -15 -317 -32 -101
-13 -173 -24 -203 -30 -14 -3 -45 -7 -68 -10 -24 -2 -53 -9 -63 -15 -10 -5
-19 -8 -19 -6 0 4 -57 -7 -200 -39 -92 -20 -311 -81 -426 -119 -75 -25 -143
-45 -150 -45 -8 0 -14 -4 -14 -8 0 -4 -8 -8 -18 -9 -10 -1 -58 -17 -108 -36
-110 -43 -126 -49 -139 -53 -72 -18 -649 -293 -765 -364 -8 -5 -69 -39 -135
-77 -107 -60 -169 -97 -200 -120 -6 -5 -26 -17 -45 -27 -48 -27 -357 -232
-370 -246 -3 -3 -36 -28 -75 -55 -38 -27 -75 -54 -82 -60 -36 -30 -43 -35 -53
-35 -5 0 -10 -4 -10 -9 0 -4 -17 -20 -37 -34 -21 -14 -51 -37 -68 -51 -16 -14
-35 -29 -40 -33 -30 -22 -174 -141 -200 -164 -16 -15 -57 -51 -90 -80 -67 -60
-322 -314 -345 -345 -31 -41 -115 -139 -122 -142 -5 -2 -8 -8 -8 -13 0 -5 -8
-17 -17 -27 -17 -16 -40 -44 -125 -148 -47 -59 -92 -115 -99 -126 -3 -5 -26
-12 -50 -14 -190 -19 -256 -45 -319 -125 -22 -28 -40 -54 -40 -58 0 -4 -8 -16
-18 -27 -15 -15 -112 -165 -182 -279 -8 -13 -58 -93 -110 -177 -52 -84 -99
-160 -105 -170 -5 -10 -48 -82 -95 -160 -166 -279 -206 -380 -177 -450 17 -41
127 -127 272 -213 15 -9 15 -14 1 -55 -8 -25 -18 -60 -21 -79 -3 -19 -8 -37
-10 -41 -2 -3 -6 -17 -9 -31 -3 -13 -17 -75 -30 -137 -14 -62 -27 -125 -29
-140 -3 -15 -12 -65 -21 -112 -8 -47 -18 -101 -21 -120 -3 -19 -8 -42 -10 -50
-2 -8 -6 -37 -10 -64 -3 -27 -8 -53 -10 -57 -3 -4 -7 -22 -9 -40 -15 -106 -48
-193 -125 -327 -81 -141 -163 -309 -166 -342 0 -3 -6 -15 -13 -27 -7 -13 -10
-23 -8 -23 3 0 -1 -19 -10 -41 -8 -23 -16 -51 -19 -63 -2 -12 -11 -48 -19 -81
-23 -93 -54 -285 -61 -375 -16 -190 -19 -254 -19 -390 0 -192 12 -372 30 -480
3 -19 8 -48 11 -65 4 -26 26 -147 39 -214 17 -85 107 -385 141 -471 4 -8 7
-18 8 -22 2 -5 4 -9 5 -10 1 -2 3 -376 5 -833 1 -456 5 -866 9 -910 6 -83 15
-172 21 -215 9 -70 18 -127 21 -145 2 -11 7 -36 10 -55 4 -19 20 -87 36 -150
36 -140 33 -131 43 -155 4 -11 23 -60 43 -110 19 -49 47 -112 62 -140 15 -27
36 -66 46 -85 11 -19 22 -37 25 -40 3 -3 19 -25 37 -50 26 -39 52 -71 90 -115
31 -35 137 -126 187 -161 209 -144 443 -212 759 -219 144 -3 136 1 162 -85 26
-83 71 -173 104 -207 38 -39 113 -68 170 -67 47 1 172 12 205 18 11 2 47 7 80
11 32 4 66 8 75 10 8 1 38 6 65 9 28 4 57 9 65 11 8 2 29 7 45 10 17 2 40 7
53 10 12 3 32 7 45 10 67 14 123 28 132 34 6 3 18 7 28 8 37 6 194 76 270 120
86 50 199 153 241 221 26 42 84 177 91 211 2 10 10 41 19 70 9 30 13 57 11 62
-3 4 -1 10 4 13 5 3 12 27 16 53 5 27 9 53 11 58 1 6 5 27 9 49 4 21 9 48 11
60 2 11 7 39 9 61 3 22 8 54 11 70 7 30 8 41 18 125 3 25 8 61 11 80 4 34 13
110 20 180 2 19 6 60 9 90 4 30 8 84 11 120 2 36 6 90 9 120 6 59 12 138 21
295 4 55 8 127 10 160 4 66 15 283 21 415 5 116 4 522 -1 645 -17 431 -34 730
-50 915 -8 98 -15 174 -20 240 -3 36 -8 85 -11 110 -3 25 -7 61 -10 80 -2 19
-7 62 -10 95 -7 65 -12 100 -14 100 -1 0 -3 20 -6 45 -7 73 -12 104 -18 120
-3 8 -7 35 -10 60 -3 25 -10 68 -16 95 -6 28 -12 59 -14 70 -8 45 -38 156 -62
230 -31 98 -76 178 -149 263 -34 41 -157 128 -233 166 -142 72 -345 134 -529
162 -26 4 -57 8 -68 10 -11 1 -20 3 -20 4 0 1 -13 3 -30 5 -16 2 -50 7 -75 10
-141 20 -202 26 -260 26 -156 1 -226 -64 -291 -267 -12 -38 -26 -73 -31 -78
-4 -6 -56 -11 -115 -12 -221 -4 -394 -33 -545 -92 -26 -11 -27 -10 -42 46 -9
31 -37 122 -62 202 -25 80 -47 152 -49 160 -22 95 -116 287 -164 336 -38 39
-66 88 -57 102 2 4 7 45 11 92 11 127 13 139 41 335 17 120 58 320 84 409 10
36 15 67 12 71 -4 4 25 3 63 -1 112 -12 226 -11 279 2 99 26 151 82 234 250
164 334 206 412 315 594 59 99 120 189 186 277 47 63 66 75 145 88 21 3 46 10
55 15 9 4 36 16 61 25 49 19 50 19 148 72 108 58 345 214 407 267 17 14 33 26
37 26 4 0 13 6 20 13 7 7 40 33 73 57 55 41 90 69 119 95 6 6 40 32 76 60 36
27 67 52 70 55 3 3 23 19 45 35 22 17 42 32 45 36 3 3 30 26 60 50 30 25 64
52 75 61 11 10 52 43 90 74 142 115 160 129 183 152 12 12 25 22 28 22 8 0
194 157 217 183 9 10 17 16 17 13 0 -6 37 23 72 57 10 9 21 17 24 17 3 0 23
13 43 29 61 47 140 101 150 101 5 0 11 4 13 9 3 8 86 60 198 124 135 77 529
259 590 272 8 2 16 4 18 5 1 2 5 3 10 5 4 1 14 4 22 8 22 9 243 81 255 83 6 1
62 15 125 32 124 32 234 57 290 66 19 3 46 8 60 11 14 3 45 8 70 11 25 3 52 7
60 9 8 3 40 7 70 10 31 3 71 8 90 10 147 22 530 22 635 1 11 -2 51 -7 89 -10
38 -4 72 -9 75 -11 4 -2 31 -6 61 -10 79 -9 95 -12 195 -35 92 -22 114 -27
151 -34 29 -6 152 -41 254 -74 47 -14 87 -27 90 -27 3 -1 18 -7 33 -13 16 -7
34 -12 41 -12 7 0 16 -3 20 -7 4 -5 11 -8 14 -9 4 0 20 -6 35 -12 15 -7 74
-31 130 -54 150 -62 432 -205 506 -257 14 -10 31 -20 36 -22 29 -12 265 -176
360 -251 79 -63 132 -106 145 -118 9 -9 34 -29 55 -45 22 -17 45 -34 51 -40 6
-5 32 -28 59 -50 26 -22 53 -44 59 -50 6 -5 67 -55 136 -110 69 -55 132 -106
140 -115 14 -14 82 -70 161 -132 46 -35 212 -165 224 -175 51 -41 250 -186
285 -209 25 -16 47 -31 50 -35 29 -34 416 -246 428 -234 3 2 12 0 22 -5 16 -9
31 -13 95 -25 39 -7 85 -58 182 -202 111 -164 206 -332 330 -583 156 -314 188
-360 281 -402 50 -22 186 -30 296 -17 38 5 72 7 74 4 7 -6 51 -175 58 -220 3
-22 7 -42 9 -45 2 -3 6 -25 10 -50 4 -25 8 -47 10 -51 2 -3 7 -30 10 -60 3
-30 8 -61 10 -69 6 -20 25 -172 30 -235 9 -111 14 -161 15 -170 7 -32 -4 -59
-36 -92 -92 -97 -137 -201 -249 -573 -19 -63 -39 -134 -45 -157 l-11 -42 -52
19 c-157 57 -315 83 -519 84 l-118 1 -21 65 c-72 227 -141 292 -304 291 -44
-1 -89 -3 -100 -5 -12 -2 -48 -7 -80 -11 -33 -4 -71 -9 -85 -11 -14 -2 -44 -7
-66 -10 -23 -2 -52 -7 -65 -9 -13 -3 -41 -7 -64 -11 -34 -5 -90 -16 -190 -39
-111 -25 -350 -118 -385 -150 -9 -8 -20 -15 -24 -15 -16 0 -127 -92 -171 -142
-71 -81 -145 -252 -180 -414 -17 -80 -45 -226 -49 -259 -4 -22 -8 -51 -11 -65
-3 -14 -7 -41 -10 -60 -2 -19 -6 -51 -9 -70 -3 -19 -7 -57 -10 -85 -4 -27 -8
-63 -11 -80 -3 -16 -7 -55 -10 -85 -2 -30 -7 -73 -9 -95 -3 -22 -7 -71 -11
-110 -3 -38 -8 -90 -10 -115 -4 -40 -9 -108 -21 -278 -7 -111 -18 -307 -30
-567 -12 -250 -7 -775 11 -1060 3 -49 8 -135 10 -190 3 -55 7 -129 10 -165 3
-36 7 -101 10 -145 3 -44 8 -98 10 -120 2 -22 7 -76 11 -120 7 -97 10 -124 18
-195 3 -30 8 -77 11 -105 3 -27 8 -66 10 -85 3 -19 7 -55 10 -80 3 -25 14 -97
25 -160 10 -63 22 -131 25 -150 10 -69 56 -246 82 -320 70 -197 205 -338 423
-438 69 -31 227 -87 275 -96 11 -3 63 -13 115 -25 52 -11 113 -23 135 -26 22
-3 74 -10 115 -15 41 -5 84 -12 95 -14 42 -8 182 -20 228 -19 99 3 168 47 215
137 26 50 58 138 68 186 3 13 7 26 9 29 2 2 62 5 132 6 70 2 146 5 168 9 22 3
60 8 85 11 56 6 182 39 255 66 30 11 56 20 57 19 2 -1 35 17 75 39 40 23 77
41 82 41 5 0 11 4 13 8 2 4 25 23 53 42 74 52 214 197 266 275 46 68 129 212
129 222 0 3 7 19 15 36 42 91 112 317 129 417 3 19 8 46 11 60 8 37 33 207 40
271 15 142 17 276 19 1044 2 734 4 824 19 858 9 20 14 37 11 37 -2 0 2 13 11
30 8 16 16 33 16 37 2 10 2 9 33 108 41 134 83 314 111 480 9 55 19 138 31
255 5 56 5 436 -1 510 -13 181 -20 243 -30 300 -3 14 -7 41 -9 60 -5 35 -30
162 -40 205 -14 55 -21 79 -39 135 -47 148 -104 271 -202 435 -61 101 -71 122
-89 196 -13 55 -59 293 -81 424 -5 28 -21 112 -31 163 -2 12 -6 32 -8 45 -2
12 -12 54 -21 92 -9 39 -18 79 -21 90 -8 40 -13 61 -23 93 -5 17 -7 32 -4 32
3 0 1 6 -5 13 -5 6 -13 26 -17 44 -6 28 -3 33 24 48 54 27 205 136 234 168 15
17 28 38 29 46 6 71 -3 108 -54 206 -62 121 -328 568 -340 573 -5 2 -8 8 -8
13 0 12 -266 432 -312 494 -42 55 -66 79 -98 95 -45 23 -153 48 -230 54 -42 3
-58 9 -73 28 -10 12 -23 30 -30 38 -7 8 -28 35 -47 60 -57 73 -86 109 -164
200 -11 14 -39 48 -61 75 -21 28 -57 69 -80 92 -230 236 -265 270 -463 441
-13 11 -41 35 -64 54 -23 18 -46 38 -52 43 -40 37 -157 125 -165 125 -6 0 -11
4 -11 8 0 5 -21 24 -47 43 -27 18 -52 37 -58 41 -5 5 -49 37 -97 71 -48 34
-114 81 -146 105 -33 23 -64 42 -70 42 -6 0 -12 3 -14 8 -3 6 -143 101 -189
127 -15 8 -122 73 -204 122 -11 7 -33 19 -50 28 -16 9 -52 29 -80 45 -27 16
-93 50 -145 77 -52 26 -96 51 -98 56 -2 4 -8 7 -13 7 -5 0 -51 20 -102 44
-179 85 -267 126 -272 126 -4 0 -25 8 -48 19 -49 22 -197 82 -212 86 -5 1 -21
7 -35 12 -14 6 -97 35 -185 64 -88 29 -169 56 -180 60 -40 15 -334 94 -389
105 -40 7 -131 26 -176 35 -25 6 -56 11 -70 13 -14 2 -36 6 -50 9 -14 3 -45 8
-70 11 -25 3 -55 7 -67 10 -12 2 -50 7 -85 11 -35 3 -70 8 -78 10 -17 4 -123
15 -220 22 -63 4 -569 11 -573 7z m-5509 -6018 c15 -8 40 -29 56 -47 31 -35
106 -153 106 -167 0 -5 -40 -49 -88 -98 -185 -188 -322 -455 -397 -777 -23
-101 -26 -100 -27 8 -1 61 11 301 16 335 3 14 7 52 11 85 3 33 12 96 20 140
26 153 32 183 39 193 3 5 8 23 11 40 20 113 105 275 155 295 27 10 71 7 98 -7z
m11592 -3 c33 -23 46 -39 76 -97 42 -79 86 -235 110 -382 3 -20 8 -46 10 -58
7 -38 25 -186 30 -254 2 -36 6 -77 9 -89 4 -27 7 -159 5 -248 l-2 -60 -14 50
c-7 28 -15 61 -18 75 -19 110 -96 315 -168 450 -78 148 -113 195 -235 318 -40
41 -73 78 -73 84 0 14 54 103 93 152 57 72 125 95 177 59z"/>
<path d="M4355 9704 c-52 -8 -128 -36 -169 -62 -62 -38 -102 -87 -130 -157
-22 -56 -25 -76 -23 -162 5 -146 48 -228 151 -280 64 -32 87 -39 211 -62 122
-23 150 -34 165 -62 16 -29 4 -85 -22 -103 -13 -10 -41 -14 -80 -13 -52 2 -63
6 -84 30 -14 17 -25 42 -25 63 -1 19 -3 39 -4 44 -1 6 -3 15 -4 20 -1 6 -62
10 -160 10 l-160 0 5 -77 c9 -175 75 -283 209 -342 68 -30 258 -45 345 -28
109 21 167 51 228 116 58 62 84 135 85 236 1 90 -4 124 -26 176 -33 79 -117
142 -232 174 l-50 13 80 2 c44 1 113 1 154 0 l73 -1 -5 83 c-3 46 -8 94 -11
107 -32 138 -105 219 -231 257 -50 15 -233 26 -290 18z m163 -293 c28 -15 41
-47 48 -118 l6 -53 -29 5 c-15 3 -44 7 -63 10 -47 8 -50 9 -87 24 -26 11 -32
19 -35 53 -4 44 12 75 45 87 29 11 88 7 115 -8z"/>
<path d="M5364 9696 c-115 -26 -192 -80 -243 -169 -35 -63 -57 -127 -66 -193
-4 -27 -9 -60 -11 -74 -14 -83 -3 -327 17 -405 6 -22 13 -47 14 -57 8 -39 62
-131 99 -170 144 -146 480 -152 641 -11 114 100 165 331 140 628 -22 261 -117
398 -315 452 -44 12 -221 11 -276 -1z m205 -293 c46 -35 63 -107 63 -278 1
-171 -12 -251 -47 -292 -22 -25 -31 -28 -86 -28 -54 0 -63 3 -84 27 -34 39
-48 123 -48 279 -1 164 15 248 52 282 42 40 104 44 150 10z"/>
<path d="M6127 9683 c-2 -5 -3 -201 -2 -438 1 -380 4 -437 19 -490 38 -128
137 -208 286 -231 69 -10 200 -11 250 -2 25 5 55 10 66 12 46 9 134 58 164 93
35 40 64 99 77 158 3 11 7 219 9 463 l4 442 -163 0 -162 0 1 -403 c0 -221 -3
-414 -8 -429 -14 -39 -31 -49 -92 -55 -66 -6 -113 15 -122 54 -4 14 -7 208 -7
430 l-1 403 -157 0 c-87 0 -159 -3 -162 -7z"/>
<path d="M7188 9678 c-3 -11 -2 -1119 1 -1139 1 -3 70 -5 154 -5 l152 1 -1
252 0 253 32 -63 c17 -34 74 -148 127 -253 l95 -190 161 0 c88 0 161 3 162 6
1 3 2 263 3 578 l1 572 -155 -2 -154 -3 0 -248 c1 -136 -1 -245 -3 -243 -3 2
-59 114 -126 248 l-122 243 -161 3 c-124 2 -163 0 -166 -10z"/>
<path d="M8270 9112 l0 -579 248 2 c271 2 344 13 435 62 51 28 127 105 127
129 0 8 5 14 12 14 6 0 8 3 5 7 -4 3 -3 11 2 17 48 58 69 402 36 586 -8 43
-48 150 -57 150 -4 0 -8 7 -8 15 0 23 -76 91 -133 120 -90 44 -161 53 -424 54
l-243 2 0 -579z m471 273 c65 -34 86 -109 83 -296 -2 -129 -15 -191 -48 -224
-27 -27 -84 -45 -143 -45 l-43 0 0 289 c0 222 3 290 13 294 21 8 109 -4 138
-18z"/>
<path d="M3650 8353 c-36 -7 -71 -14 -77 -15 -7 -1 -13 -5 -13 -10 0 -4 -8 -8
-17 -8 -24 0 -134 -87 -140 -111 -3 -10 -9 -19 -13 -19 -14 0 -43 -115 -45
-182 -2 -60 6 -125 20 -166 2 -7 5 -16 6 -20 1 -4 15 -25 32 -46 64 -80 156
-118 362 -150 62 -9 97 -28 110 -59 24 -58 -8 -100 -83 -111 -83 -11 -128 30
-133 124 l-2 45 -156 0 c-86 0 -159 -4 -162 -9 -18 -25 13 -203 48 -269 57
-111 191 -173 377 -175 198 -2 339 62 404 183 18 35 18 34 32 100 22 105 1
233 -50 305 -22 31 -101 90 -125 94 -8 1 -18 5 -21 9 -4 4 -14 7 -23 7 -9 1
-29 7 -46 14 -25 10 -10 12 110 11 77 -1 145 0 150 2 12 4 9 98 -5 180 -27
155 -126 250 -290 278 -69 12 -186 11 -250 -2z m174 -283 c31 -12 43 -34 52
-96 3 -27 7 -53 8 -59 1 -13 -97 -8 -144 7 -52 16 -70 36 -70 77 1 38 15 64
40 74 24 9 87 8 114 -3z"/>
<path d="M5589 8354 c-192 -36 -299 -157 -304 -344 -6 -231 91 -330 365 -375
148 -23 189 -55 166 -124 -13 -39 -57 -60 -115 -55 -57 5 -80 23 -96 77 -8 27
-12 53 -10 57 3 5 3 14 0 22 -4 11 -39 13 -163 13 l-157 0 1 -50 c3 -181 63
-294 187 -355 78 -37 99 -42 227 -46 194 -6 308 38 401 153 16 20 35 66 47
113 8 33 9 166 1 211 -16 93 -95 174 -206 212 -32 11 -61 23 -66 26 -4 4 54 7
129 6 74 0 138 3 141 8 6 11 6 57 -1 132 -18 174 -114 283 -279 316 -80 16
-195 17 -268 3z m174 -285 c34 -15 48 -45 53 -111 l5 -59 -53 6 c-122 14 -158
36 -158 95 0 38 14 64 40 73 26 9 88 7 113 -4z"/>
<path d="M6657 8364 c-1 -1 -20 -4 -42 -7 -44 -7 -107 -27 -153 -51 -38 -20
-107 -88 -127 -126 -42 -81 -51 -231 -20 -325 46 -136 137 -187 415 -231 67
-11 108 -44 104 -84 -1 -8 -2 -23 -3 -32 -3 -44 -135 -72 -177 -37 -14 12 -45
62 -44 74 0 3 0 22 0 43 l0 38 -157 -1 -158 0 -3 -50 c-2 -28 2 -77 8 -110 38
-193 165 -286 401 -294 258 -8 416 94 454 294 11 55 6 147 -12 209 -23 84 -91
152 -183 185 -36 12 -74 26 -85 30 -10 4 44 7 120 6 77 -1 145 2 151 7 13 10
9 123 -7 193 -42 182 -169 265 -412 270 -37 0 -69 0 -70 -1z m117 -294 c31
-12 54 -53 56 -105 3 -68 4 -67 -47 -60 -124 14 -153 31 -160 92 -4 35 -1 43
23 62 29 23 85 28 128 11z"/>
<path d="M8228 8365 c-2 -2 -21 -5 -43 -8 -123 -17 -229 -93 -283 -202 -50
-101 -66 -198 -66 -395 0 -235 36 -369 125 -465 81 -88 193 -127 349 -121 109
5 139 10 195 33 178 76 250 237 249 563 -1 173 -10 245 -47 340 -64 169 -184
247 -391 254 -47 2 -87 2 -88 1z m143 -313 c46 -41 59 -112 57 -309 -1 -90 -6
-163 -11 -163 -4 0 -6 -4 -3 -8 2 -4 -3 -26 -13 -47 -19 -42 -47 -62 -96 -68
-72 -9 -115 34 -133 133 -14 77 -9 345 8 398 28 90 125 123 191 64z"/>
<path d="M4379 8331 c0 -9 -1 -269 -2 -579 l-2 -562 374 2 375 3 0 133 c1 110
-2 135 -14 141 -8 4 -104 7 -212 6 l-198 -1 0 81 0 81 175 -1 c169 0 175 0
176 20 4 85 3 215 -1 239 l-5 28 -173 -1 -172 -1 0 70 0 70 33 1 c17 0 112 0
210 1 97 0 177 3 178 6 7 45 2 265 -6 270 -5 4 -173 7 -372 8 -322 0 -363 -1
-364 -15z"/>
<path d="M7343 8341 c-5 -3 -9 -264 -9 -578 l0 -573 162 0 161 0 -1 578 -1
577 -152 1 c-83 0 -156 -2 -160 -5z"/>
<path d="M8929 8311 c0 -49 0 -1070 0 -1098 1 -23 2 -23 154 -23 l152 0 0 250
c0 138 1 250 2 250 4 0 77 -142 93 -180 6 -14 44 -90 84 -170 l73 -145 164 -3
164 -2 -1 572 c-1 315 -2 576 -3 579 0 3 -68 5 -151 5 l-150 0 -1 -30 c0 -17
0 -132 0 -256 l1 -225 -128 255 -128 255 -162 1 -162 1 -1 -36z"/>
<path d="M6544 5474 c-21 -8 -40 -14 -41 -14 -1 0 -11 -16 -24 -36 l-22 -36 1
-1742 c1 -957 2 -1748 4 -1757 7 -30 38 -69 70 -85 60 -31 152 3 179 67 8 22
11 457 11 1767 0 1595 -1 1742 -16 1773 -31 64 -91 88 -162 63z"/>
<path d="M6012 4815 c-40 -18 -59 -36 -72 -70 -15 -39 -14 -2189 1 -2218 16
-30 58 -66 87 -74 46 -11 103 10 135 50 l31 37 0 1082 c1 754 -2 1092 -10
1114 -13 38 -39 66 -77 82 -36 15 -54 15 -95 -3z"/>
<path d="M7063 4813 c-35 -18 -61 -46 -71 -75 -5 -13 -8 -509 -7 -1103 1 -914
3 -1085 15 -1112 16 -37 75 -73 116 -73 44 0 95 31 116 70 17 33 18 86 18
1117 0 1207 4 1130 -69 1171 -42 23 -80 25 -118 5z"/>
<path d="M5471 4412 c-71 -39 -68 -4 -69 -769 0 -740 0 -734 52 -768 79 -52
167 -27 200 57 18 47 17 1379 -2 1423 -27 63 -117 92 -181 57z"/>
<path d="M7584 4414 c-17 -8 -40 -32 -51 -52 -20 -36 -20 -53 -19 -732 1 -665
2 -696 20 -723 52 -77 170 -77 222 0 18 27 19 58 20 723 1 766 4 735 -62 778
-39 26 -86 28 -130 6z"/>
<path d="M4975 4162 c-29 -7 -62 -30 -81 -60 -17 -25 -18 -61 -19 -457 0 -392
1 -433 18 -466 32 -65 119 -88 182 -46 64 42 64 44 62 517 -2 388 -4 428 -20
453 -31 48 -88 72 -142 59z"/>
<path d="M8125 4155 c-86 -40 -84 -29 -82 -527 2 -482 0 -468 72 -502 44 -21
83 -20 122 4 68 41 66 28 68 484 0 226 -2 428 -6 450 -13 76 -104 123 -174 91z"/>
</g>
</svg>
